<?xml version="1.0" standalone="no"?>
<!DOCTYPE svg PUBLIC "-//W3C//DTD SVG 20010904//EN"
 "http://www.w3.org/TR/2001/REC-SVG-20010904/DTD/svg10.dtd">
<svg version="1.0" xmlns="http://www.w3.org/2000/svg"
 width="418.000000pt" height="83.000000pt" viewBox="0 0 418.000000 83.000000"
 preserveAspectRatio="xMidYMid meet">

<g transform="translate(0.000000,83.000000) scale(0.100000,-0.100000)"
fill="#000000" stroke="none">
<path d="M170 814 c-62 -22 -105 -56 -137 -112 -69 -116 -10 -283 119 -336 56
-24 143 -20 203 8 69 32 80 47 57 76 l-19 23 -53 -26 c-30 -15 -69 -27 -87
-27 -106 0 -194 112 -164 210 35 116 160 162 262 95 l37 -24 23 25 24 26 -28
24 c-31 26 -115 54 -161 54 -17 -1 -51 -8 -76 -16z"/>
<path d="M2792 588 l3 -233 28 -3 27 -3 0 175 c0 110 4 176 10 176 5 0 41 -65
79 -145 66 -136 71 -145 98 -144 26 0 33 10 97 145 39 79 73 144 78 144 4 0 9
-78 10 -172 l3 -173 28 -3 27 -3 0 235 0 236 -43 0 -44 0 -74 -155 c-41 -85
-77 -155 -82 -155 -4 0 -42 70 -84 155 l-78 155 -43 0 -42 0 2 -232z"/>
<path d="M3370 746 l0 -76 35 0 c35 0 35 0 35 45 l0 45 78 0 c121 0 192 -45
212 -133 10 -45 -4 -110 -30 -147 -32 -44 -77 -60 -174 -60 l-86 0 0 45 c0 45
0 45 -35 45 l-36 0 3 -77 3 -78 125 1 c136 2 171 11 228 59 38 32 63 76 72
125 l6 35 66 -2 c154 -3 268 -104 268 -235 -1 -184 -215 -327 -433 -290 -86
15 -169 48 -289 114 -50 28 -128 64 -172 81 -70 27 -95 31 -181 31 -113 1
-143 -9 -310 -103 -108 -62 -197 -91 -274 -91 -143 0 -257 117 -292 298 -11
60 -11 64 10 83 23 22 27 49 11 80 -15 28 -74 26 -94 -3 -22 -31 -20 -45 11
-76 21 -20 31 -44 39 -94 24 -135 91 -236 192 -285 47 -23 69 -28 132 -27 92
1 153 22 298 103 133 74 184 91 270 91 102 0 172 -22 343 -109 206 -105 271
-124 397 -119 83 3 107 8 163 35 133 62 204 161 204 283 -1 144 -100 236 -283
262 l-80 11 -6 36 c-8 52 -49 106 -104 138 -44 26 -55 28 -184 31 l-138 4 0
-76z"/>
<path d="M1650 694 l0 -86 -31 26 c-39 33 -108 36 -157 6 -91 -55 -90 -215 1
-270 54 -33 164 -19 180 22 3 7 6 1 6 -14 1 -25 5 -28 36 -28 l35 0 0 215 0
215 -35 0 -35 0 0 -86z m-61 -95 c79 -28 80 -156 2 -189 -39 -16 -76 -6 -107
27 -43 46 -26 134 31 159 37 16 35 16 74 3z"/>
<path d="M530 644 c-44 -19 -44 -19 -31 -42 10 -19 13 -19 54 -4 46 17 86 12
111 -14 30 -29 20 -44 -31 -44 -114 -1 -163 -31 -163 -100 0 -54 43 -90 109
-90 26 0 56 7 67 15 25 19 34 19 34 0 0 -10 10 -15 30 -15 l30 0 0 121 c0 66
-5 129 -10 140 -25 46 -129 64 -200 33z m150 -174 c0 -12 -11 -32 -25 -45 -41
-42 -125 -29 -125 20 0 33 24 44 93 45 51 0 57 -2 57 -20z"/>
<path d="M855 650 c-29 -11 -44 -32 -51 -68 -5 -26 -1 -36 23 -61 17 -16 48
-34 71 -40 54 -15 75 -36 62 -62 -14 -24 -66 -25 -115 -2 -31 15 -37 15 -45 3
-17 -27 -10 -38 35 -55 65 -25 141 -16 172 19 27 32 30 76 6 105 -10 12 -45
31 -78 44 -51 20 -60 27 -60 48 0 30 31 36 88 19 41 -12 56 -4 57 27 0 26
-117 43 -165 23z"/>
<path d="M1141 642 c-50 -25 -74 -63 -78 -124 -7 -94 44 -157 135 -166 85 -8
163 31 130 64 -14 14 -19 14 -46 0 -45 -23 -86 -20 -121 10 -56 47 -44 54 84
54 l115 0 0 35 c0 116 -113 181 -219 127z m134 -57 c46 -45 35 -55 -60 -55
-88 0 -94 4 -74 41 23 43 98 51 134 14z"/>
<path d="M1810 505 l0 -155 35 0 35 0 0 99 c0 99 0 99 31 125 17 14 39 26 50
26 14 0 19 7 19 30 0 39 -26 40 -69 4 l-31 -26 0 26 c0 23 -4 26 -35 26 l-35
0 0 -155z"/>
<path d="M2081 638 c-113 -76 -90 -246 38 -283 21 -7 23 -5 17 18 -3 14 -22
41 -41 60 -44 44 -47 91 -9 136 50 60 140 46 170 -26 18 -41 5 -96 -27 -116
-20 -13 -24 -33 -10 -55 6 -10 15 -7 40 14 63 53 78 126 40 193 -30 53 -65 74
-129 79 -45 3 -61 0 -89 -20z"/>
<path d="M2390 450 l0 -210 30 0 30 0 0 82 0 81 26 -24 c22 -20 36 -24 89 -24
54 0 68 4 90 25 79 72 71 200 -15 258 -46 31 -127 27 -165 -8 l-25 -23 0 26
c0 23 -4 27 -30 27 l-30 0 0 -210z m228 124 c24 -27 30 -90 12 -125 -16 -28
-67 -51 -99 -44 -92 20 -103 159 -16 196 31 13 78 1 103 -27z"/>
</g>
</svg>
